<svg width="131" height="32" viewBox="0 0 131 32" fill="none" xmlns="http://www.w3.org/2000/svg">
<path d="M51.7999 15.8948C51.125 15.0838 50.2372 14.4755 49.2356 14.1378C48.2757 13.8025 47.2719 13.6082 46.2558 13.5612V12.9065C46.2404 12.5694 46.2772 12.2319 46.3648 11.9059C46.3968 11.8036 46.4527 11.7103 46.5278 11.6336C46.603 11.557 46.6954 11.4992 46.7973 11.4649C47.1061 11.3702 47.4277 11.3233 47.7508 11.3258V10.9595C47.4647 10.9595 47.114 10.9832 46.6883 10.9934C46.2626 11.0036 45.837 11.0138 45.4045 11.0138C44.972 11.0138 44.4748 11.0138 44.0423 10.9934C43.6098 10.9731 43.2829 10.9697 43.0207 10.9595V11.3258C43.3418 11.3245 43.6616 11.3679 43.9708 11.4547C44.0727 11.489 44.165 11.5468 44.2402 11.6235C44.3154 11.7001 44.3713 11.7934 44.4033 11.8957C44.4922 12.2273 44.5301 12.5704 44.5156 12.9133V13.5679C43.5012 13.6193 42.5014 13.83 41.5529 14.1921C40.5407 14.5619 39.6452 15.1928 38.958 16.0203C38.334 16.7971 38.0016 17.7664 38.0181 18.7611C37.9877 19.8065 38.3089 20.832 38.9307 21.6748C39.5937 22.5146 40.4832 23.1488 41.495 23.5031C42.4744 23.8491 43.501 24.0446 44.5395 24.0831V24.7615C44.5528 25.0954 44.515 25.4294 44.4271 25.752C44.3951 25.8543 44.3392 25.9475 44.264 26.0242C44.1889 26.1008 44.0965 26.1587 43.9946 26.1929C43.6853 26.2816 43.3662 26.3317 43.0445 26.3422V26.6949C43.2999 26.6712 43.6404 26.6542 44.0661 26.6508C44.4918 26.6474 44.9311 26.6508 45.4283 26.6508C45.9255 26.6508 46.2865 26.6508 46.7121 26.6508C47.1378 26.6508 47.4886 26.6712 47.7746 26.6949V26.3286C47.4526 26.3174 47.1328 26.2708 46.8211 26.1895C46.7187 26.1594 46.6254 26.1041 46.5499 26.0289C46.4743 25.9537 46.4189 25.8608 46.3886 25.7587C46.3012 25.4269 46.2644 25.0839 46.2797 24.7411V24.0831C47.2855 24.0248 48.2755 23.806 49.2117 23.4352C50.2309 23.0465 51.1269 22.3929 51.8067 21.5425C52.4285 20.7297 52.7572 19.7319 52.7398 18.7102C52.7623 17.6918 52.4302 16.697 51.7999 15.8948ZM42.6052 23.1639C41.7869 22.7708 41.0965 22.156 40.613 21.3899C40.1121 20.5744 39.859 19.6319 39.8843 18.6763C39.8583 17.8043 40.0867 16.9436 40.5419 16.1983C40.997 15.453 41.6593 14.8551 42.4485 14.477C43.1031 14.1571 43.8126 13.9638 44.5395 13.9071V23.7439C43.8675 23.6611 43.2145 23.4649 42.6086 23.1639H42.6052ZM50.1959 21.3695C49.7443 22.1261 49.0882 22.7408 48.3025 23.1435C47.6662 23.4719 46.9726 23.6757 46.2592 23.7439V13.9275C46.9173 14.0021 47.5589 14.1819 48.1595 14.46C48.9648 14.832 49.6509 15.4191 50.1414 16.156C50.6429 16.9413 50.8979 17.8578 50.8736 18.7882C50.8888 19.6942 50.6545 20.587 50.1959 21.3695Z" fill="#303030"/>
<path d="M60.1713 15.9593H56.5919C56.282 15.9593 56.0231 15.9593 55.8052 15.9322C55.5872 15.905 55.434 15.8982 55.3352 15.8847V16.2815C55.7337 16.2542 56.131 16.3501 56.4727 16.5563C56.7247 16.7428 56.8133 17.0888 56.7928 17.6044C56.7452 18.354 56.677 19.0867 56.5919 19.8126C56.5068 20.5385 56.3944 21.2135 56.2513 21.8478C56.1305 22.4363 55.9642 23.0146 55.7541 23.5777C55.66 23.8282 55.5461 24.071 55.4135 24.3036C55.2658 24.5687 55.0786 24.81 54.8584 25.0193C54.7544 25.119 54.6317 25.1973 54.4973 25.2497C54.3629 25.3021 54.2194 25.3275 54.0751 25.3246H53.9899C53.9548 25.3257 53.9198 25.3188 53.8878 25.3042C54.0992 25.2318 54.2858 25.1013 54.4259 24.9277C54.5344 24.7751 54.5916 24.5923 54.5894 24.4053C54.6005 24.2795 54.5823 24.1529 54.5362 24.0352C54.4901 23.9175 54.4174 23.812 54.3237 23.7269C54.1371 23.5794 53.9046 23.5014 53.6664 23.5065C53.4024 23.4966 53.1449 23.589 52.9478 23.7643C52.8535 23.8579 52.7801 23.9704 52.7325 24.0944C52.685 24.2183 52.6643 24.3509 52.6719 24.4834C52.6653 24.7024 52.7298 24.9177 52.8559 25.0973C52.9782 25.2627 53.1445 25.3908 53.3361 25.467C53.5354 25.546 53.7481 25.5863 53.9627 25.5858C54.217 25.5943 54.4696 25.5421 54.6995 25.4335C54.9294 25.325 55.1299 25.1631 55.2841 24.9616C55.5973 24.5626 55.8551 24.1233 56.0504 23.6557C56.3997 22.7527 56.6376 21.8107 56.7588 20.8505C56.9018 19.8149 57.0222 18.7272 57.1198 17.5874C57.1324 17.228 57.2073 16.8734 57.3412 16.5393C57.4066 16.4411 57.4985 16.3633 57.6063 16.3147C57.7141 16.2661 57.8335 16.2487 57.9508 16.2646H58.1177C58.455 16.2307 58.7922 16.3293 59.0576 16.5393C59.2776 16.8422 59.3759 17.216 59.3335 17.5874V23.6252C59.3335 24.1498 59.1768 24.5026 58.8635 24.6835C58.4593 24.8799 58.0117 24.971 57.5625 24.9481V25.3347L58.6966 25.2873C59.1836 25.2873 59.6672 25.2601 60.1474 25.2601C60.6276 25.2601 61.0704 25.2601 61.4757 25.2873L62.3986 25.3347V24.9481C62.0177 24.9827 61.6365 24.8856 61.319 24.6733C61.1918 24.532 61.0958 24.3658 61.0371 24.1852C60.9784 24.0047 60.9585 23.8139 60.9784 23.6252V17.5942C60.9585 17.4055 60.9784 17.2147 61.0371 17.0342C61.0958 16.8537 61.1918 16.6874 61.319 16.5461C61.6365 16.3338 62.0177 16.2368 62.3986 16.2714V15.8847L61.4484 15.9322C61.0295 15.9423 60.6174 15.9593 60.1713 15.9593Z" fill="#303030"/>
<path d="M70.1216 16.1255C69.4672 15.7869 68.7406 15.6101 68.0032 15.6101C67.2658 15.6101 66.5392 15.7869 65.8849 16.1255C65.2214 16.4947 64.6894 17.0601 64.3625 17.7435C63.9534 18.6422 63.761 19.6237 63.8006 20.6097C63.7606 21.5935 63.953 22.573 64.3625 23.4692C64.6899 24.1474 65.2191 24.7088 65.8781 25.077C66.5324 25.4156 67.259 25.5924 67.9964 25.5924C68.7338 25.5924 69.4604 25.4156 70.1147 25.077C70.7683 24.7061 71.2923 24.1451 71.6166 23.4692C72.0337 22.5749 72.2321 21.595 72.1956 20.6097C72.2359 19.6233 72.0422 18.6414 71.6303 17.7435C71.3064 17.0624 70.7796 16.4974 70.1216 16.1255ZM69.7231 24.1476C69.269 24.8667 68.6934 25.2262 67.9964 25.2262C67.2994 25.2262 66.7249 24.8667 66.2731 24.1476C65.819 23.433 65.592 22.2537 65.592 20.6097C65.592 18.9657 65.819 17.7831 66.2731 17.0617C66.7272 16.3403 67.3016 15.9785 67.9964 15.9763C68.6912 15.974 69.2667 16.3358 69.7231 17.0617C70.1772 17.7853 70.4042 18.968 70.4042 20.6097C70.4042 22.2514 70.1772 23.4307 69.7231 24.1476Z" fill="#303030"/>
<path d="M79.4764 15.6031C78.6648 15.5957 77.8834 15.9092 77.3036 16.4749C76.9759 16.7909 76.7154 17.1692 76.5373 17.5875V15.6642C76.2448 15.754 75.9452 15.8187 75.6416 15.8575C75.3029 15.9019 74.9615 15.9235 74.6199 15.922C74.2487 15.922 73.8672 15.922 73.4756 15.8677V16.2544C74.0171 16.2544 74.3849 16.3833 74.5824 16.6479C74.8047 17.0161 74.9071 17.4439 74.8753 17.8724V27.1359C74.8947 27.2971 74.8802 27.4606 74.8327 27.6159C74.7852 27.7713 74.7058 27.9151 74.5995 28.0382C74.3232 28.2234 73.991 28.3073 73.6595 28.2756V28.6623C73.8536 28.6623 74.1397 28.6352 74.5177 28.6182C74.8958 28.6012 75.2704 28.5877 75.6518 28.5877C76.1922 28.5877 76.703 28.5978 77.1844 28.6182L78.3117 28.6623V28.2756C77.8615 28.2981 77.4128 28.2071 77.0073 28.011C76.694 27.8301 76.5373 27.4774 76.5373 26.9527V24.5783C76.7137 24.8231 76.9371 25.0306 77.1946 25.1889C77.6452 25.466 78.1671 25.6062 78.6965 25.5925C79.5807 25.6346 80.4492 25.3495 81.135 24.792C81.7618 24.2456 82.2319 23.5433 82.4973 22.7568C82.7862 21.929 82.9335 21.0587 82.9332 20.1823C82.9332 18.7012 82.604 17.5705 81.9455 16.7903C81.6537 16.4163 81.279 16.1145 80.8506 15.9086C80.4223 15.7026 79.952 15.5981 79.4764 15.6031ZM80.8898 22.8009C80.7751 23.4336 80.4982 24.026 80.086 24.5207C79.713 24.8752 79.2322 25.0963 78.7193 25.1491C78.2064 25.2019 77.6905 25.0834 77.2525 24.8124C76.9474 24.5962 76.6977 24.3115 76.5237 23.9813V18.4762C76.649 17.8895 76.9301 17.3472 77.3376 16.9057C77.5453 16.6759 77.7982 16.4911 78.0806 16.3627C78.363 16.2343 78.6688 16.1651 78.9792 16.1594C79.197 16.1547 79.4136 16.1931 79.6164 16.2722C79.8193 16.3514 80.0044 16.4699 80.161 16.6207C80.5255 17.0115 80.7743 17.4952 80.8796 18.0182C81.0579 18.8083 81.1391 19.617 81.1214 20.4265C81.1278 21.2261 81.0502 22.0242 80.8898 22.8077V22.8009Z" fill="#303030"/>
<path d="M85.7723 16.6207C85.8835 16.0665 86.0788 15.5324 86.3513 15.0366C86.5673 14.6582 86.8753 14.3398 87.247 14.1106C87.6461 13.8806 88.0851 13.7276 88.5411 13.6595C88.8787 13.5957 89.2199 13.5526 89.5628 13.5306L90.4143 13.4763C90.8093 13.4657 91.2006 13.3971 91.5756 13.2728C91.8487 13.1817 92.1044 13.0453 92.3317 12.8692C92.6033 12.6522 92.8212 12.376 92.9686 12.0619C93.1386 11.7058 93.2809 11.3373 93.3943 10.9595L93.115 10.8849C92.9493 11.2425 92.6876 11.5477 92.3589 11.7668C91.8966 12.0047 91.3842 12.1302 90.8638 12.1331L89.8864 12.1908C89.4848 12.2133 89.0847 12.2563 88.6876 12.3197C88.2376 12.3912 87.8012 12.5308 87.3934 12.7335C87.0474 12.9027 86.7348 13.1325 86.4705 13.4119C86.0759 13.8498 85.7778 14.3651 85.5952 14.9247C85.3929 15.5324 85.2447 16.1567 85.1525 16.7903C85.0594 17.428 85.0015 18.0012 84.9788 18.51C84.9515 19.0188 84.9413 19.3784 84.9413 19.5853C84.9013 20.7754 85.0696 21.9634 85.4385 23.096C85.6854 23.8685 86.1764 24.5407 86.8383 25.0125C87.4464 25.4039 88.1578 25.6058 88.8817 25.5925C89.6856 25.6171 90.4789 25.405 91.1622 24.9826C91.8456 24.5602 92.3886 23.9465 92.7233 23.2181C93.106 22.3892 93.2947 21.4845 93.2751 20.5724C93.28 19.8021 93.1426 19.0375 92.8698 18.3167C92.613 17.5876 92.1223 16.963 91.4735 16.5393C90.8247 16.1157 90.0539 15.9166 89.2802 15.9728C88.6901 15.9725 88.1057 16.0877 87.5603 16.312C87.0005 16.5485 86.5155 16.9319 86.1571 17.4212C85.8122 17.8945 85.5602 18.4285 85.4147 18.9951C85.4867 18.1973 85.6061 17.4044 85.7723 16.6207ZM87.0631 18.1098C87.236 17.5821 87.5633 17.1178 88.003 16.7767C88.3551 16.5134 88.7821 16.3685 89.2223 16.3629C89.5496 16.367 89.8703 16.4553 90.1532 16.6194C90.436 16.7834 90.6715 17.0176 90.8366 17.2991C91.2634 17.93 91.4757 18.994 91.4734 20.491C91.4709 20.9977 91.4403 21.5039 91.3815 22.0072C91.3218 22.532 91.2077 23.0492 91.0409 23.5505C90.9066 23.9943 90.6738 24.4024 90.3598 24.7445C90.2078 24.9004 90.0248 25.0229 89.8224 25.1041C89.62 25.1853 89.4029 25.2234 89.1848 25.216C88.7462 25.2076 88.3235 25.0509 87.986 24.7716C87.5443 24.3887 87.2207 23.8888 87.0528 23.3301C86.7932 22.4753 86.6781 21.5835 86.7123 20.6911C86.6728 19.8111 86.7916 18.9312 87.0631 18.0928V18.1098Z" fill="#303030"/>
<path d="M102.725 24.7615C102.586 24.8358 102.43 24.8732 102.272 24.87C102.186 24.8778 102.1 24.8624 102.022 24.8254C101.944 24.7884 101.878 24.7312 101.83 24.6597C101.731 24.4563 101.686 24.2308 101.7 24.0051V18.8832C101.709 18.3728 101.66 17.863 101.554 17.3636C101.46 16.9471 101.24 16.5694 100.924 16.2815C100.67 16.0497 100.367 15.877 100.038 15.7761C99.6229 15.6532 99.191 15.5949 98.7578 15.6031C98.2426 15.5964 97.7293 15.6673 97.2354 15.8134C96.8456 15.9265 96.4748 16.0969 96.1354 16.3188C95.9078 16.4746 95.7027 16.6606 95.5258 16.8717C95.3581 17.0939 95.2738 17.3675 95.2874 17.6451C95.2841 17.9187 95.3715 18.1857 95.536 18.4049C95.6287 18.521 95.7486 18.6127 95.8852 18.6718C96.0217 18.731 96.1708 18.7558 96.3193 18.7441C96.5882 18.7525 96.8505 18.6605 97.0549 18.4863C97.1534 18.3935 97.2306 18.2806 97.2811 18.1553C97.3317 18.03 97.3544 17.8953 97.3478 17.7604C97.3575 17.5022 97.2764 17.2488 97.1184 17.0438C96.9605 16.8388 96.7357 16.6952 96.4828 16.6377C96.6919 16.3692 96.9879 16.181 97.3206 16.1051C97.6435 16.0234 97.975 15.9802 98.3082 15.9762C98.6035 15.9728 98.8973 16.0198 99.1767 16.1153C99.4429 16.2133 99.6628 16.4069 99.7931 16.658C99.9702 17.0242 100.05 17.4294 100.025 17.8351V18.9748C100.026 19.1121 99.994 19.2477 99.9304 19.3696C99.8669 19.4915 99.7741 19.5959 99.6603 19.6735C99.3617 19.8811 99.0363 20.0477 98.6931 20.1687C98.298 20.3146 97.8825 20.4672 97.4466 20.6199C97.0168 20.769 96.5999 20.9528 96.2001 21.1694C95.8206 21.3726 95.4895 21.6549 95.2295 21.997C94.9664 22.3706 94.8336 22.8198 94.8514 23.2758C94.8226 23.8559 95.0176 24.425 95.3963 24.8666C95.7608 25.2635 96.3397 25.4636 97.1401 25.4636C97.6784 25.4635 98.2104 25.3478 98.6999 25.1244C99.2702 24.8382 99.7378 24.3832 100.038 23.8219C100.032 24.2238 100.14 24.6191 100.352 24.9616C100.563 25.3008 100.985 25.4568 101.625 25.4568C101.951 25.4718 102.275 25.4053 102.569 25.2635C102.826 25.1182 103.073 24.955 103.308 24.7751L103.103 24.463C102.989 24.5762 102.862 24.6764 102.725 24.7615ZM100.038 23.3436C99.7977 23.7769 99.4568 24.1467 99.0438 24.4223C98.7197 24.6348 98.342 24.7524 97.954 24.7615C97.7596 24.7672 97.566 24.7335 97.3851 24.6623C97.2042 24.5912 97.0397 24.4841 96.9017 24.3477C96.7463 24.1744 96.6284 23.9712 96.5551 23.7506C96.4819 23.53 96.455 23.2969 96.4759 23.0655C96.4434 22.5641 96.6015 22.0689 96.9187 21.6782C97.2166 21.3513 97.5781 21.0882 97.9813 20.9048C98.3934 20.7149 98.7918 20.5419 99.1801 20.3824C99.5241 20.2573 99.8229 20.033 100.038 19.738V23.3436Z" fill="#303030"/>
<path d="M110.302 20.9422C109.57 20.4917 108.724 20.2565 107.864 20.2638C108.303 20.1574 108.729 20.0062 109.137 19.8126C109.554 19.6215 109.925 19.3453 110.227 19.0019C110.528 18.6524 110.686 18.2034 110.67 17.7435C110.678 17.446 110.616 17.1507 110.49 16.881C110.363 16.6114 110.175 16.3748 109.941 16.19C109.368 15.7683 108.664 15.5606 107.952 15.6032C107.528 15.5875 107.105 15.6591 106.709 15.8135C106.43 15.9377 106.163 16.0852 105.909 16.2544C105.773 16.3392 105.653 16.4139 105.548 16.4749C105.467 16.5279 105.375 16.5594 105.279 16.5665C105.085 16.5665 104.938 16.2951 104.873 15.7558H104.451C104.475 15.939 104.495 16.1866 104.516 16.4919C104.536 16.7972 104.547 17.1703 104.56 17.6044C104.574 18.0386 104.56 18.5508 104.543 19.1376H104.965C104.942 18.5588 105.066 17.9835 105.326 17.4654C105.554 17.0159 105.894 16.6326 106.314 16.3528C106.691 16.1001 107.134 15.9633 107.588 15.9593C107.803 15.9459 108.018 15.9909 108.21 16.0894C108.402 16.1879 108.564 16.3364 108.678 16.519C108.925 16.9655 109.043 17.4716 109.018 17.981C109.025 18.4499 108.924 18.9142 108.722 19.3378C108.603 19.554 108.44 19.7426 108.243 19.8912C108.046 20.0397 107.819 20.1447 107.578 20.1993L107.189 20.1281C107.061 20.1046 106.931 20.0921 106.801 20.0908C106.518 20.0908 106.379 20.1891 106.379 20.3859C106.379 20.5826 106.512 20.6979 106.784 20.6979C106.919 20.6988 107.054 20.6734 107.179 20.6233C107.309 20.5758 107.435 20.5182 107.561 20.4571C107.839 20.4515 108.114 20.513 108.363 20.6365C108.612 20.7599 108.828 20.9416 108.991 21.166C109.343 21.6694 109.521 22.2729 109.498 22.8858C109.523 23.5112 109.32 24.1245 108.926 24.6123C108.713 24.8468 108.449 25.0298 108.153 25.1473C107.858 25.2649 107.54 25.3139 107.223 25.2907C106.795 25.2892 106.371 25.217 105.967 25.077C105.656 25.0061 105.377 24.8357 105.173 24.5919C105.391 24.5516 105.589 24.4421 105.738 24.2799C105.888 24.0803 105.961 23.8344 105.946 23.5859C105.93 23.3375 105.826 23.1026 105.653 22.9231C105.455 22.75 105.198 22.6579 104.935 22.6653C104.805 22.6612 104.676 22.6834 104.556 22.7307C104.435 22.7779 104.325 22.8492 104.233 22.94C104.141 23.0344 104.069 23.1466 104.021 23.2696C103.974 23.3927 103.952 23.524 103.957 23.6558C103.954 23.917 104.042 24.1713 104.206 24.3749C104.384 24.5925 104.591 24.7843 104.822 24.9447C105.142 25.143 105.485 25.3003 105.844 25.4128C106.285 25.5488 106.745 25.614 107.206 25.6061C107.877 25.6153 108.543 25.5003 109.171 25.2669C109.737 25.0635 110.241 24.7218 110.639 24.2731C111.006 23.8494 111.202 23.3058 111.191 22.7467C111.215 22.3946 111.146 22.0425 110.99 21.7257C110.834 21.4089 110.596 21.1386 110.302 20.9422Z" fill="#303030"/>
<path d="M120.553 24.7615C120.414 24.8358 120.258 24.8732 120.1 24.87C120.014 24.8779 119.927 24.8624 119.849 24.8254C119.772 24.7884 119.705 24.7312 119.657 24.6597C119.558 24.4563 119.513 24.2308 119.528 24.0051V18.8832C119.536 18.3728 119.487 17.863 119.381 17.3636C119.284 16.9454 119.059 16.5674 118.738 16.2815C118.482 16.0503 118.179 15.8778 117.849 15.7761C117.43 15.6519 116.995 15.5935 116.558 15.6031C116.043 15.5964 115.529 15.6673 115.036 15.8134C114.646 15.9273 114.275 16.0976 113.936 16.3188C113.708 16.4737 113.504 16.6599 113.329 16.8717C113.16 17.0935 113.075 17.3671 113.087 17.6451C113.086 17.9185 113.173 18.185 113.336 18.4049C113.429 18.5215 113.55 18.6135 113.687 18.6726C113.824 18.7318 113.974 18.7564 114.123 18.7441C114.4 18.7552 114.671 18.6592 114.879 18.4761C114.978 18.3839 115.056 18.2712 115.108 18.1458C115.159 18.0204 115.182 17.8854 115.175 17.7503C115.185 17.4916 115.103 17.2378 114.945 17.0327C114.786 16.8277 114.56 16.6843 114.307 16.6275C114.516 16.359 114.812 16.1708 115.145 16.095C115.467 16.0133 115.799 15.97 116.132 15.9661C116.428 15.9626 116.721 16.0096 117.001 16.1051C117.268 16.203 117.489 16.3965 117.62 16.6479C117.794 17.015 117.873 17.4197 117.849 17.8249V18.9646C117.852 19.1033 117.821 19.2408 117.758 19.3646C117.695 19.4884 117.602 19.5946 117.488 19.6735C117.189 19.8811 116.864 20.0477 116.52 20.1687C116.125 20.3146 115.71 20.4672 115.274 20.6199C114.844 20.7697 114.428 20.9534 114.027 21.1694C113.649 21.3727 113.319 21.655 113.06 21.997C112.795 22.3695 112.66 22.8193 112.679 23.2758C112.651 23.8557 112.846 24.4243 113.224 24.8666C113.587 25.2624 114.169 25.4614 114.971 25.4636C115.509 25.4635 116.041 25.3478 116.531 25.1244C117.099 24.8369 117.565 24.3822 117.866 23.8219C117.859 24.2243 117.969 24.6201 118.182 24.9616C118.39 25.3008 118.816 25.4569 119.456 25.4569C119.781 25.4715 120.104 25.405 120.396 25.2635C120.654 25.119 120.901 24.9558 121.135 24.7751L120.931 24.463C120.816 24.5763 120.69 24.6764 120.553 24.7615ZM117.866 23.3436C117.621 23.7795 117.274 24.1497 116.854 24.4223C116.53 24.6349 116.152 24.7524 115.764 24.7615C115.57 24.7672 115.376 24.7335 115.195 24.6623C115.015 24.5912 114.85 24.4841 114.712 24.3477C114.557 24.1744 114.439 23.9712 114.366 23.7506C114.292 23.5301 114.265 23.2969 114.286 23.0655C114.254 22.5641 114.412 22.0689 114.729 21.6782C115.024 21.3484 115.383 21.0818 115.785 20.8946C116.197 20.7047 116.599 20.5317 116.984 20.3723C117.328 20.2472 117.626 20.0228 117.842 19.7278L117.866 23.3436Z" fill="#303030"/>
<path d="M130.003 16.7767C129.728 16.4393 129.387 16.1621 129 15.9625C128.613 15.7629 128.188 15.6452 127.753 15.6169C127.318 15.5885 126.882 15.6501 126.472 15.7978C126.062 15.9454 125.687 16.1759 125.371 16.4749C125.042 16.7898 124.781 17.1684 124.605 17.5874V15.6642C124.312 15.754 124.013 15.8186 123.709 15.8575C123.37 15.9017 123.029 15.9233 122.687 15.922C122.319 15.922 121.938 15.922 121.543 15.8677V16.2544C122.084 16.2544 122.456 16.3833 122.653 16.6478C122.876 17.0161 122.978 17.4438 122.946 17.8724V27.1359C122.965 27.2971 122.951 27.4606 122.903 27.6159C122.856 27.7712 122.777 27.915 122.67 28.0381C122.394 28.2234 122.062 28.3073 121.73 28.2756V28.6623C121.924 28.6623 122.21 28.6351 122.589 28.6182C122.967 28.6012 123.341 28.5876 123.723 28.5876C124.263 28.5876 124.774 28.5978 125.255 28.6182L126.379 28.6623V28.2756C125.93 28.2981 125.482 28.207 125.078 28.011C124.765 27.8301 124.608 27.4773 124.608 26.9527V24.5783C124.785 24.8231 125.008 25.0306 125.265 25.1889C125.716 25.4659 126.238 25.6062 126.767 25.5925C127.651 25.6339 128.52 25.3489 129.206 24.792C129.833 24.2455 130.303 23.5433 130.568 22.7568C130.856 21.9288 131.002 21.0585 131.001 20.1823C130.994 18.6921 130.661 17.5569 130.003 16.7767ZM128.981 22.8077C128.866 23.4403 128.589 24.0327 128.177 24.5274C127.804 24.882 127.323 25.103 126.811 25.1558C126.298 25.2086 125.782 25.0902 125.344 24.8191C125.037 24.6051 124.787 24.3199 124.615 23.9881V18.4761C124.739 17.889 125.02 17.3463 125.429 16.9056C125.637 16.6759 125.889 16.491 126.172 16.3627C126.454 16.2343 126.76 16.1651 127.07 16.1594C127.507 16.1526 127.928 16.3185 128.242 16.6207C128.607 17.0115 128.855 17.4952 128.961 18.0182C129.139 18.8083 129.22 19.617 129.202 20.4265C129.209 21.2261 129.131 22.0242 128.971 22.8077H128.981Z" fill="#303030"/>
<path d="M21.3391 11.6583C21.3391 11.6583 14.0918 12.3367 14.0918 18.7272V26.1726C14.0918 26.1726 21.3391 25.6468 21.3391 18.9171V11.6583Z" fill="#F9DCE7"/>
<path d="M21.1749 3.27666C19.0467 1.86235 16.7176 0.773859 14.2653 0.0474878L14.0917 0L13.9146 0.0474878C11.4623 0.773859 9.1332 1.86235 7.00496 3.27666C2.42126 6.33962 0 10.4066 0 15.0401V32H14.7727V26.7628C16.6389 26.4236 22.0195 24.9616 22.0195 18.9171V10.9154L21.2737 10.9833C20.0161 11.151 18.7945 11.5222 17.6571 12.0823C16.3631 9.36867 14.5344 8.20182 14.4492 8.15094L14.1087 7.92707L13.7307 8.14077C13.6455 8.19165 11.8168 9.3551 10.5262 12.0721C9.3875 11.5122 8.1648 11.141 6.90621 10.9731L6.16042 10.9052V18.9171C6.16042 24.9616 11.541 26.4338 13.4106 26.7628V30.6568H1.36217V15.0536C1.36217 5.59339 12.5388 1.87916 14.0917 1.40767C15.6411 1.87916 26.8177 5.59339 26.8177 15.0401V30.6432H18.6447V32H28.1799V15.0401C28.1799 10.4066 25.7587 6.33962 21.1749 3.27666ZM20.6573 18.9171C20.6573 23.7778 16.4993 25.0668 14.7727 25.3924V18.7272C14.7727 14.1344 18.9172 12.8081 20.6573 12.4554V18.9171ZM14.0917 9.57558C15.1112 10.457 15.9248 11.5499 16.4755 12.7776C15.4527 13.4694 14.6306 14.4169 14.0917 15.5251C13.5524 14.4171 12.7304 13.4696 11.7079 12.7776C12.2568 11.5489 13.0707 10.4556 14.0917 9.57558ZM7.52259 18.9171V12.4554C9.26276 12.7946 13.4106 14.1514 13.4106 18.7272V25.389C12.4955 25.2142 11.6117 24.9044 10.7884 24.4698C8.62254 23.3063 7.52259 21.4374 7.52259 18.9171Z" fill="#303030"/>
</svg>
