<svg width="62" height="62" viewBox="0 0 62 62" fill="none" xmlns="http://www.w3.org/2000/svg">
<g clip-path="url(#clip0)">
<path d="M47.5819 9.72549C47.5698 9.72549 47.618 9.82493 43.9336 0C41.4778 0 21.4973 0 18.0663 0L14.4192 9.72549C12.4674 9.72549 5.84302 9.72549 3.89014 9.72549V62H58.1098V9.72549H47.5819ZM35.9186 50.8825L30.9999 57.2066L26.0813 50.8825L28.7546 25.0431H33.2453L35.9186 50.8825ZM20.043 5.11561L27.9218 12.9945L21.6683 16.1212L17.5472 11.7703L20.043 5.11561ZM33.4973 21.3961H28.5026L27.3952 17.3358C27.7434 17.1509 26.1135 17.9768 30.9999 15.5328C35.9077 17.9875 34.261 17.1532 34.6047 17.3358L33.4973 21.3961ZM34.0781 12.9945L41.9569 5.11561L44.4527 11.7703L40.3316 16.1212L34.0781 12.9945ZM38.2685 3.64706L30.9999 10.9156L23.7314 3.64706H38.2685ZM7.5372 58.3529V13.3725H14.0411L20.8806 20.5925L24.0681 18.9987C24.0803 18.9923 24.0423 18.9032 25.2608 23.3707C25.2387 23.5979 25.5097 20.9656 22.3029 51.9646L27.2714 58.3529H7.5372ZM54.4627 58.3529H34.7285L39.697 51.9645C36.5486 21.5291 36.747 23.4518 36.7391 23.3706C37.9564 18.9076 37.9196 18.9923 37.9318 18.9986L41.1193 20.5924L47.9588 13.3725H54.4627V58.3529Z" fill="#A79186"/>
</g>
<defs>
<clipPath id="clip0">
<rect width="62" height="62" rx="1" fill="white"/>
</clipPath>
</defs>
</svg>
