<svg width="62" height="44" viewBox="0 0 62 44" fill="none" xmlns="http://www.w3.org/2000/svg">
<path d="M58.125 0.6875H3.875C1.73987 0.6875 0 2.42737 0 4.5625V39.4375C0 41.5726 1.73987 43.3125 3.875 43.3125H58.125C60.2601 43.3125 62 41.5726 62 39.4375V4.5625C62 2.42737 60.2601 0.6875 58.125 0.6875ZM38.75 4.5625H58.125V20.0625H49.3249C50.84 19.4503 52.0451 18.8612 52.545 18.3614C54.8119 16.0945 54.8119 12.4094 52.545 10.1425C50.2781 7.87563 46.593 7.87563 44.3261 10.1425C43.4543 11.0144 40.9239 14.0136 38.75 16.6215V4.5625ZM42.3305 18.3769C44.3532 15.955 46.3993 13.5486 47.0658 12.8821C47.4455 12.5024 47.9415 12.3125 48.4375 12.3125C48.9335 12.3125 49.4295 12.4985 49.8092 12.8783C50.5649 13.6339 50.5649 14.8623 49.8558 15.5752C49.1738 16.11 46.0272 17.2337 42.3305 18.3769ZM34.875 39.4375H3.875V23.9375H32.1354L25.7571 30.3158C25.0015 31.0714 25.0015 32.2997 25.7571 33.0554C26.133 33.4351 26.629 33.625 27.125 33.625C27.621 33.625 28.117 33.4351 28.4967 33.0592L34.875 26.6771V39.4375ZM34.875 16.6215C32.7011 14.0136 30.1707 11.0144 29.2989 10.1386C27.032 7.87175 23.3469 7.87175 21.08 10.1386C18.8131 12.4055 18.8131 16.0906 21.08 18.3575C21.5799 18.8612 22.785 19.4503 24.3001 20.0625H3.875V4.5625H34.875V16.6215ZM31.2945 18.3769C27.6016 17.2337 24.4667 16.1255 23.8158 15.6179C23.0601 14.8623 23.0601 13.6339 23.8158 12.8783C24.1955 12.5024 24.6915 12.3125 25.1875 12.3125C25.6835 12.3125 26.1795 12.4985 26.5592 12.8783C27.2257 13.5486 29.2718 15.955 31.2945 18.3769ZM58.125 41.375V39.4375H38.75V26.6771L45.1283 33.0554C45.508 33.4351 46.004 33.625 46.5 33.625C46.996 33.625 47.492 33.4351 47.8717 33.0592C48.6274 32.3036 48.6274 31.0753 47.8717 30.3196L41.4896 23.9375H58.125V39.4375C58.125 39.4375 58.125 39.4375 58.1289 39.4375L58.125 41.375Z" fill="#A79186"/>
</svg>
