<svg width="62" height="62" viewBox="0 0 62 62" fill="none" xmlns="http://www.w3.org/2000/svg">
<g clip-path="url(#clip0)">
<path d="M61.8708 38.0903L59.147 30.9999L61.8669 23.9056C62.1691 23.123 61.9289 22.2318 61.278 21.7049L55.3771 16.9237L54.1837 9.41873C54.052 8.59345 53.4011 7.94253 52.5758 7.8108L45.0708 6.61744L40.2896 0.716518C39.7627 0.065595 38.8754 -0.170752 38.0889 0.127588L30.9985 2.85139L23.9042 0.131462C23.1215 -0.170752 22.2343 0.065595 21.7073 0.720392L16.9262 6.62131L9.42117 7.81467C8.59589 7.94641 7.94497 8.59733 7.81324 9.42261L6.61988 16.9276L0.718959 21.7088C0.0680363 22.2357 -0.16831 23.123 0.130029 23.9056L2.84995 30.9999L0.130029 38.0942C-0.16831 38.8769 0.0680363 39.7641 0.718959 40.2911L6.61988 45.0722L7.81324 52.5772C7.94497 53.4025 8.59589 54.0534 9.42117 54.1852L16.9262 55.3785L21.7073 61.2794C22.2381 61.9342 23.1254 62.1744 23.9081 61.8684L30.9985 59.1484L38.0928 61.8684C38.3175 61.9536 38.5538 61.9962 38.7863 61.9962C39.3559 61.9962 39.9177 61.7444 40.2935 61.2794L45.0747 55.3785L52.5797 54.1852C53.4049 54.0534 54.0559 53.4025 54.1876 52.5772L55.3809 45.0722L61.2819 40.2911C61.9328 39.7641 62.1691 38.873 61.8708 38.0903ZM55.257 31.6935L57.7405 38.1639L52.3511 42.5267C51.9791 42.8289 51.7311 43.2551 51.6575 43.7278L50.5688 50.5741L43.7225 51.6628C43.2498 51.7364 42.8236 51.9844 42.5214 52.3564L38.1664 57.7459L31.6959 55.2623C31.4712 55.1809 31.2348 55.1344 30.9985 55.1344C30.7621 55.1344 30.5258 55.177 30.3049 55.2623L23.8345 57.7459L19.4717 52.3564C19.1695 51.9844 18.7433 51.7364 18.2706 51.6628L11.4243 50.5741L10.3356 43.7278C10.2619 43.2551 10.014 42.8289 9.64202 42.5267L4.25254 38.1678L6.73612 31.6973C6.9066 31.2479 6.9066 30.7519 6.73224 30.3064L4.25254 23.832L9.64202 19.4693C10.014 19.1671 10.2619 18.7409 10.3356 18.2682L11.4243 11.4219L18.2706 10.3331C18.7433 10.2595 19.1695 10.0115 19.4717 9.63958L23.8306 4.25397L30.3011 6.73755C30.7466 6.90803 31.2426 6.90803 31.6881 6.73755L38.1586 4.25397L42.5214 9.64345C42.8236 10.0154 43.2498 10.2634 43.7225 10.337L50.5688 11.4257L51.6575 18.2721C51.7311 18.7447 51.9791 19.1709 52.3511 19.4732L57.7405 23.8359L55.257 30.3064C55.0865 30.7519 55.0865 31.2479 55.257 31.6935Z" fill="#A79186"/>
<path d="M25.1863 15.5017C21.9821 15.5017 19.3745 18.1093 19.3745 21.3135C19.3745 24.5178 21.9821 27.1253 25.1863 27.1253C28.3906 27.1253 30.9981 24.5178 30.9981 21.3135C30.9981 18.1093 28.3906 15.5017 25.1863 15.5017ZM25.1863 23.2508C24.1169 23.2508 23.2491 22.3829 23.2491 21.3135C23.2491 20.2441 24.1169 19.3762 25.1863 19.3762C26.2557 19.3762 27.1236 20.2441 27.1236 21.3135C27.1236 22.3829 26.2557 23.2508 25.1863 23.2508Z" fill="#A79186"/>
<path d="M36.8099 34.8745C33.6056 34.8745 30.998 37.4821 30.998 40.6863C30.998 43.8906 33.6056 46.4981 36.8099 46.4981C40.0141 46.4981 42.6217 43.8906 42.6217 40.6863C42.6217 37.4821 40.0141 34.8745 36.8099 34.8745ZM36.8099 42.6236C35.7405 42.6236 34.8726 41.7557 34.8726 40.6863C34.8726 39.6169 35.7405 38.7491 36.8099 38.7491C37.8792 38.7491 38.7471 39.6169 38.7471 40.6863C38.7471 41.7557 37.8792 42.6236 36.8099 42.6236Z" fill="#A79186"/>
<path d="M41.8119 15.8658C40.944 15.2459 39.7313 15.4474 39.1114 16.3153L19.7387 43.437C19.1149 44.3049 19.3164 45.5177 20.1843 46.1376C20.5252 46.3817 20.9204 46.4979 21.3118 46.4979C21.9162 46.4979 22.5129 46.2151 22.8887 45.6881L42.2614 18.5664C42.8852 17.6946 42.6798 16.4857 41.8119 15.8658Z" fill="#A79186"/>
</g>
<defs>
<clipPath id="clip0">
<rect width="62" height="62" fill="white"/>
</clipPath>
</defs>
</svg>
