<svg width="69" height="53" viewBox="0 0 69 53" fill="none" xmlns="http://www.w3.org/2000/svg">
<path d="M60.6565 8.61935C60.6565 8.61935 56.7868 8.58834 56.4504 8.58834C51.2039 8.58834 46.054 6.59485 41.9499 2.97538C39.7745 1.0567 36.9776 0 34.0744 0C31.1711 0 28.3742 1.05657 26.1989 2.97525C22.0947 6.59485 16.9449 8.58834 11.6984 8.58834C11.3619 8.58834 7.49223 8.61935 7.49223 8.61935C3.36098 8.61935 0 11.9803 0 16.1116V24.4492C0 31.7079 5.00946 38.0571 11.9987 39.7815C16.23 47.6434 24.5381 53 34.0744 53C43.6107 53 51.9187 47.6434 56.15 39.7815C63.1394 38.0571 68.1487 31.7079 68.1487 24.4492V16.1116C68.1487 11.9803 64.7877 8.61935 60.6565 8.61935ZM28.8402 5.96993C30.2856 4.69521 32.1444 3.99309 34.0744 3.99309C36.0044 3.99309 37.8631 4.69507 39.3085 5.97007C43.8011 9.93214 49.3757 12.2399 55.1334 12.5463V15.6984H54.6526C48.1472 15.6984 41.9048 13.4325 37.0752 9.31827C36.761 9.05087 36.4649 8.77122 36.1108 8.55466C35.7171 8.31388 35.2795 8.1463 34.8265 8.05859C33.9382 7.88662 32.9982 8.02664 32.2028 8.45962C31.7798 8.68989 31.4372 9.00881 31.0738 9.31841C26.244 13.4326 20.0015 15.6986 13.4965 15.6986H13.0155V12.5464C18.773 12.2399 24.3476 9.93201 28.8402 5.96993ZM3.99309 24.4492V16.1116C3.99309 14.1821 5.56277 12.6124 7.49223 12.6124H9.02225V27.9478C9.02225 30.2853 9.34503 32.5487 9.94665 34.6969C6.35686 32.6384 3.99309 28.7593 3.99309 24.4492ZM34.0744 49.0069C22.4625 49.0069 13.0153 39.5598 13.0153 27.9478V19.6915H13.4964C20.9495 19.6915 28.1115 17.0872 33.6629 12.3581C33.7488 12.285 33.8366 12.2121 33.9156 12.1317C33.954 12.0925 34.0181 11.9936 34.0801 11.9983C34.1325 12.0022 34.1952 12.094 34.2293 12.1281C34.3101 12.2091 34.3983 12.2834 34.4854 12.3578C40.037 17.087 47.1991 19.6915 54.6526 19.6915H55.1334V27.9478C55.1334 39.5598 45.6863 49.0069 34.0744 49.0069ZM64.1556 24.4492C64.1556 28.7593 61.7919 32.6384 58.2019 34.6969C58.8036 32.5489 59.1263 30.2854 59.1263 27.9478V12.6124H60.6564C62.5858 12.6124 64.1555 14.1821 64.1555 16.1116V24.4492H64.1556Z" fill="#A79186"/>
<path d="M46.5158 34.0802C43.0208 35.4016 38.6025 36.1293 34.0744 36.1293C29.5467 36.1293 25.1284 35.4015 21.6333 34.0802C20.6016 33.6898 19.4496 34.2104 19.0598 35.2416C18.6698 36.2731 19.1898 37.4252 20.2212 37.8152C24.2134 39.3246 29.0037 40.1224 34.0744 40.1224C39.1455 40.1224 43.9359 39.3246 47.9279 37.8151C48.9593 37.4251 49.4794 36.2728 49.0894 35.2415C48.6994 34.2101 47.5472 33.6898 46.5158 34.0802Z" fill="#A79186"/>
<path d="M48.5185 24.7343C44.4568 26.0742 39.3272 26.8121 34.0743 26.8121C28.8216 26.8121 23.692 26.0741 19.6303 24.7345C18.5837 24.3893 17.4544 24.9578 17.1088 26.0051C16.7634 27.0522 17.3323 28.1813 18.3794 28.5266C22.8985 30.0172 28.3258 30.8052 34.0743 30.8052C39.8231 30.8052 45.2503 30.0172 49.7694 28.5264C50.8165 28.1809 51.3854 27.0521 51.04 26.0049C50.6944 24.9577 49.5656 24.3889 48.5185 24.7343Z" fill="#A79186"/>
</svg>
