<svg width="21" height="20" viewBox="0 0 21 20" fill="none" xmlns="http://www.w3.org/2000/svg">
<path d="M0.413914 16.3288C2.35816 17.5038 4.62091 18.1247 6.95717 18.1247C10.3784 18.1247 13.5135 16.873 15.7859 14.6005C17.9603 12.4255 19.1564 9.503 19.0969 6.53717C19.9212 5.8655 20.8907 4.583 20.8907 3.333C20.8907 2.85383 20.3447 2.54967 19.9019 2.79383C19.1275 3.22717 18.4214 3.3405 17.6952 3.14633C16.212 1.76967 14.0044 1.47967 12.1442 2.43467C10.5184 3.268 9.61454 4.793 9.69592 6.45967C6.94929 6.1405 4.41179 4.82883 2.64254 2.7905C2.35204 2.458 1.80079 2.49717 1.56979 2.87383C0.717539 4.26383 0.726289 5.87467 1.46741 7.1755C1.11479 7.23467 0.896914 7.51717 0.896914 7.823C0.896914 9.1305 1.51466 10.3322 2.50954 11.1522C2.32404 11.3222 2.26279 11.5747 2.34154 11.7997C2.77904 13.0513 3.76954 14.0297 5.00766 14.5197C3.66104 15.1322 2.17179 15.3363 0.846164 15.1813C0.160164 15.093 -0.178461 15.9713 0.413914 16.3288ZM7.13654 14.7338C7.62742 14.3747 7.36667 13.6263 6.75067 13.6138C5.66567 13.5922 4.67779 13.083 4.06266 12.2822C4.35929 12.2638 4.66641 12.2205 4.95866 12.1455C5.62454 11.9738 5.59304 11.0588 4.91666 10.9297C3.68904 10.6947 2.72566 9.843 2.36429 8.74633C2.69416 8.82383 3.03016 8.86717 3.36529 8.873C4.02941 8.87633 4.28054 8.0655 3.73891 7.72633C2.51829 6.9605 1.99766 5.608 2.34241 4.33633C4.47391 6.393 7.36579 7.63217 10.4248 7.77217C10.8632 7.798 11.1922 7.4055 11.0959 7.008C10.6803 5.29217 11.6865 4.08967 12.7672 3.5355C13.8364 2.9855 15.5532 2.81383 16.8692 4.12883C17.2603 4.52133 18.5798 4.53633 19.2509 4.38717C18.9499 4.92717 18.487 5.43967 18.0539 5.728C17.8693 5.85133 17.7634 6.05633 17.7748 6.2705C17.9157 9.008 16.8447 11.7297 14.8365 13.7372C12.8135 15.7597 10.0162 16.8738 6.95804 16.8738C5.74179 16.8738 4.54916 16.6855 3.42216 16.3222C4.76966 16.0738 6.04979 15.5305 7.13654 14.7338Z" fill="#A79186"/>
</svg>
