<svg width="56" height="56" viewBox="0 0 56 56" fill="none" xmlns="http://www.w3.org/2000/svg">
<path d="M48.6453 8.4L42.5693 5.768L38.6213 1.01733C38.2667 0.606667 37.94 0 37.3333 0H18.6667C18.116 0 17.78 0.541333 17.4627 0.933333L13.4307 5.768L7.35467 8.4C2.90518 10.3065 0.0146407 14.6753 0 19.516V49.4667C0 53.0749 2.92507 56 6.53333 56H49.4667C53.0749 56 56 53.0749 56 49.4667V19.516C55.9854 14.6753 53.0948 10.3065 48.6453 8.4ZM40.18 25.4987L41.832 30.4547L30.0813 39.2747L41.8413 9.464L45.5747 22.7267L40.8147 24.3133C40.5706 24.3822 40.365 24.5474 40.2453 24.771C40.1256 24.9946 40.102 25.2573 40.18 25.4987ZM15.232 24.3133L10.472 22.7267L14.1587 9.464L25.9187 39.2747L14.168 30.4547L15.8667 25.4987C15.9447 25.2573 15.9211 24.9946 15.8014 24.771C15.6817 24.5474 15.4761 24.3822 15.232 24.3133ZM18.6667 2.352L26.712 11.2L22.4653 15.4373L15.2133 6.53333L18.6667 2.352ZM40.7867 6.53333L33.5347 15.4L29.288 11.2L37.3333 2.352L40.7867 6.53333ZM29.5867 16.6693C29.6218 16.9371 29.5392 17.207 29.3602 17.4092C29.1812 17.6115 28.9234 17.7263 28.6533 17.724C27.2627 17.724 26.992 17.7987 26.656 17.3973C26.482 17.1937 26.4038 16.9252 26.4413 16.66L26.8613 13.6547L28 12.516L29.148 13.664L29.5867 16.6693ZM25.6107 18.956L23.4733 28L17.0613 11.76L21.6813 17.36C21.8475 17.5646 22.0923 17.6893 22.3554 17.7036C22.6186 17.7178 22.8755 17.6201 23.0627 17.4347L24.6587 15.8667L24.584 16.408C24.436 17.3796 24.8209 18.356 25.592 18.9653L25.6107 18.956ZM27.384 19.5907H28.6533L31.3507 31.0147L28.0187 39.4147L24.6867 31.0147L27.384 19.5907ZM32.5453 27.9907L30.4267 18.9653C31.1994 18.3572 31.5847 17.3799 31.4347 16.408L31.3413 15.8667C33.0307 17.556 33.0867 17.7333 33.6 17.7333C33.8791 17.7315 34.1428 17.6048 34.3187 17.388L38.9387 11.788L32.5453 27.9907ZM28 9.80933L20.776 1.86667H35.224L28 9.80933ZM1.86667 49.4667V19.516C1.86739 15.4086 4.31616 11.6968 8.092 10.08L12.5813 8.15733L8.4 23.0813C8.32199 23.3227 8.34556 23.5854 8.46528 23.809C8.585 24.0326 8.79056 24.1978 9.03467 24.2667L13.748 25.8347L12.18 30.548C12.0515 30.9304 12.1833 31.3521 12.5067 31.5933L27.0667 42.4667V54.1333H6.53333C3.956 54.1333 1.86667 52.044 1.86667 49.4667ZM54.1333 49.4667C54.1333 52.044 52.044 54.1333 49.4667 54.1333H28.9333V42.4667L43.4933 31.5467C43.834 31.3181 43.9855 30.894 43.8667 30.5013L42.2987 25.788L46.9653 24.22C47.4508 24.0755 47.7325 23.5702 47.6 23.0813L43.456 8.148L47.9453 10.0707C51.7097 11.7002 54.1428 15.4141 54.1333 19.516V49.4667Z" fill="#A79186"/>
<path d="M33.6008 44.7999C32.0544 44.7999 30.8008 46.0535 30.8008 47.5999C30.8008 49.1463 32.0544 50.3999 33.6008 50.3999C35.1472 50.3999 36.4008 49.1463 36.4008 47.5999C36.4008 46.0535 35.1472 44.7999 33.6008 44.7999ZM33.6008 48.5333C33.0853 48.5333 32.6674 48.1154 32.6674 47.5999C32.6674 47.0845 33.0853 46.6666 33.6008 46.6666C34.1162 46.6666 34.5341 47.0845 34.5341 47.5999C34.5341 48.1154 34.1162 48.5333 33.6008 48.5333Z" fill="#A79186"/>
</svg>
