<svg width="62" height="62" viewBox="0 0 62 62" fill="none" xmlns="http://www.w3.org/2000/svg">
<path d="M61.7249 27.3791L55.9124 17.6916C55.5636 17.1065 54.932 16.75 54.25 16.75H42.625V10.9375C42.625 9.868 41.757 9 40.6875 9H13.5625C12.493 9 11.625 9.868 11.625 10.9375V12.875H1.9375C0.868 12.875 0 13.743 0 14.8125C0 15.882 0.868 16.75 1.9375 16.75H11.625V20.625H5.8125C4.743 20.625 3.875 21.493 3.875 22.5625C3.875 23.632 4.743 24.5 5.8125 24.5H11.625V28.375H9.6875C8.618 28.375 7.75 29.243 7.75 30.3125C7.75 31.382 8.618 32.25 9.6875 32.25H11.625V38.0625C11.625 39.132 12.493 40 13.5625 40H15.8565C16.6586 42.2514 18.7899 43.875 21.3125 43.875C23.8351 43.875 25.9664 42.2514 26.7685 40H40.6875H46.8565C47.6586 42.2514 49.7899 43.875 52.3125 43.875C54.8351 43.875 56.9664 42.2514 57.7685 40H60.0625C61.132 40 62 39.132 62 38.0625V28.375C62 28.0224 61.907 27.6775 61.7249 27.3791ZM21.3125 40C20.2469 40 19.375 39.132 19.375 38.0625C19.375 36.993 20.2469 36.125 21.3125 36.125C22.3781 36.125 23.25 36.993 23.25 38.0625C23.25 39.132 22.3781 40 21.3125 40ZM38.75 36.125H26.7685C25.9664 33.8736 23.8351 32.25 21.3125 32.25C18.7899 32.25 16.6586 33.8736 15.8565 36.125H15.5V12.875H38.75V36.125ZM52.3125 40C51.2469 40 50.375 39.132 50.375 38.0625C50.375 36.993 51.2469 36.125 52.3125 36.125C53.3781 36.125 54.25 36.993 54.25 38.0625C54.25 39.132 53.3781 40 52.3125 40ZM58.125 36.125H57.7685C56.9664 33.8736 54.8351 32.25 52.3125 32.25C49.7899 32.25 47.6586 33.8736 46.8565 36.125H42.625V20.625H53.1534L58.125 28.9136V36.125Z" fill="#A79186"/>
<line x1="60.25" y1="58.75" x2="1.75" y2="58.75" stroke="#A79186" stroke-width="3.5" stroke-linecap="round" stroke-dasharray="4 6"/>
</svg>
