<svg  class="main-svg-sprite main-svg-sprite--icons" xmlns="http://www.w3.org/2000/svg" xmlns:xlink="http://www.w3.org/1999/xlink"><symbol viewBox="0 0 24 24" id="close" xmlns="http://www.w3.org/2000/svg"><path d="M18.984 6.422L13.406 12l5.578 5.578-1.406 1.406L12 13.406l-5.578 5.578-1.406-1.406L10.594 12 5.016 6.422l1.406-1.406L12 10.594l5.578-5.578z"/></symbol><symbol viewBox="0 0 12 13" id="close-icon" xmlns="http://www.w3.org/2000/svg"><g clip-path="url(#bclip0)"><path d="M6.662 6.1l5.2-5.2A.469.469 0 1011.2.237L6 5.437.8.237A.469.469 0 10.138.9l5.2 5.2-5.2 5.2a.469.469 0 10.663.663l5.2-5.2 5.2 5.2a.467.467 0 00.662 0 .469.469 0 000-.663l-5.2-5.2z"/></g><defs><clipPath id="bclip0"><path transform="translate(0 .1)" d="M0 0h12v12H0z"/></clipPath></defs></symbol><symbol viewBox="0 0 18 18" id="completed-icon" xmlns="http://www.w3.org/2000/svg"><path d="M17 10.6V17H1V1h8" stroke="#A79186"/><path d="M5.8 7L9 10.2l8-8" stroke="#A79186"/></symbol><symbol viewBox="0 0 24 23" id="discounts-icon" xmlns="http://www.w3.org/2000/svg"><path d="M22.5 5.97h-4.746c.34-.232.633-.463.837-.67a3.138 3.138 0 000-4.413c-1.175-1.182-3.224-1.183-4.4 0-.649.653-2.376 3.31-2.137 5.084h-.108c.237-1.775-1.488-4.431-2.137-5.084-1.176-1.183-3.225-1.182-4.4 0A3.14 3.14 0 005.407 5.3c.206.207.498.438.839.67H1.5c-.827 0-1.5.674-1.5 1.5v3.75c0 .415.336.75.75.75h.75v9c0 .827.674 1.5 1.5 1.5h18c.826 0 1.5-.673 1.5-1.5v-9h.75a.75.75 0 00.75-.75V7.47c0-.826-.674-1.5-1.5-1.5zM6.473 1.946a1.593 1.593 0 011.136-.474c.428 0 .832.168 1.136.474 1.011 1.017 2.016 3.615 1.667 3.976 0 0-.064.05-.278.05-1.037 0-3.015-1.077-3.662-1.728a1.636 1.636 0 010-2.298zM11.25 20.97H3v-9h8.25v9zm0-10.5H1.5v-3h9.75v3zm4.005-8.526c.609-.61 1.665-.61 2.272 0a1.636 1.636 0 010 2.298c-.646.65-2.625 1.728-3.661 1.728-.214 0-.277-.048-.279-.05-.348-.361.657-2.96 1.668-3.976zM21 20.97h-8.25v-9H21v9zm1.5-10.5h-9.75v-3h9.75v3z"/></symbol><symbol viewBox="0 0 24 24" id="menu" xmlns="http://www.w3.org/2000/svg"><path d="M3 18h18v-2H3v2zm0-5h18v-2H3v2zm0-7v2h18V6H3z"/></symbol><symbol viewBox="0 0 24 23" id="mini-cart-icon" xmlns="http://www.w3.org/2000/svg"><path d="M9.75 18c-1.24 0-2.25 1.01-2.25 2.25 0 1.241 1.01 2.251 2.25 2.251 1.241 0 2.25-1.01 2.25-2.25S10.992 18 9.75 18zm0 3a.75.75 0 11.001-1.5.75.75 0 010 1.5zM18.751 18c-1.24 0-2.25 1.01-2.25 2.25 0 1.241 1.01 2.251 2.25 2.251s2.25-1.01 2.25-2.25-1.01-2.25-2.25-2.25zm0 3a.75.75 0 110-1.5.75.75 0 010 1.5zM23.826 3.27A.745.745 0 0023.25 3H5.622L4.97.557A.748.748 0 004.245 0H.75a.75.75 0 000 1.5h2.92l3.856 14.444a.748.748 0 00.724.557h12a.75.75 0 000-1.5H8.827l-.44-1.647 13.398-.603a.75.75 0 00.704-.615l1.5-8.25a.748.748 0 00-.162-.616zM21.12 11.28l-13.132.591L6.023 4.5h16.33L21.12 11.28z"/><path d="M18.751 6a.75.75 0 00-.75.75v3a.75.75 0 001.5 0v-3a.75.75 0 00-.75-.75zM14.25 6a.75.75 0 00-.75.75v3a.75.75 0 001.5 0v-3a.75.75 0 00-.75-.75zM9.75 6a.75.75 0 00-.75.75v3a.75.75 0 001.5 0v-3A.75.75 0 009.75 6z"/></symbol><symbol viewBox="0 0 24 21" id="phone-icon" xmlns="http://www.w3.org/2000/svg"><path d="M19.626 14.94a14.777 14.777 0 01-4.701-1.23 1.497 1.497 0 00-1.956.684l-1.482 2.941A18.936 18.936 0 013.662 9.51l2.942-1.482a1.493 1.493 0 00.684-1.953A14.798 14.798 0 016.06 1.374 1.493 1.493 0 004.575 0H.75A.75.75 0 000 .75c0 3.053.664 5.997 1.978 8.755a20.422 20.422 0 009.52 9.516A20.193 20.193 0 0020.25 21a.75.75 0 00.75-.75v-3.825c0-.776-.591-1.413-1.374-1.485zM1.515 1.502l3.051.007a16.056 16.056 0 001.365 5.182L3.017 8.16A18.609 18.609 0 011.515 1.5zM19.5 19.485a18.696 18.696 0 01-6.657-1.5l1.47-2.904a15.987 15.987 0 005.187 1.344v3.06z"/><path d="M14.25 6.75c1.24 0 2.25-1.01 2.25-2.25v-.75c0-1.24-1.01-2.25-2.25-2.25h-3a.75.75 0 000 1.5h3c.412 0 .75.336.75.75v.75c0 .414-.338.75-.75.75A3.754 3.754 0 0010.5 9v.75c0 .414.336.75.75.75h4.5a.75.75 0 000-1.5H12c0-1.24 1.01-2.25 2.25-2.25zM23.25 1.5a.75.75 0 00-.75.75V6h-2.71l1.17-3.513a.75.75 0 00-1.423-.474l-1.5 4.5a.748.748 0 00.105.675c.14.197.366.312.608.312h3.75v2.25a.75.75 0 001.5 0v-7.5a.75.75 0 00-.75-.75z"/></symbol><symbol viewBox="0 0 32 32" id="search" xmlns="http://www.w3.org/2000/svg"><path d="M19.427 20.427a8.5 8.5 0 112-2l5.585 5.585c.55.55.546 1.431 0 1.976l-.023.023a1.398 1.398 0 01-1.976 0l-5.585-5.585zM14.5 20a6.5 6.5 0 100-13 6.5 6.5 0 000 13z"/></symbol><symbol viewBox="0 0 13 14" id="search-icon" xmlns="http://www.w3.org/2000/svg"><path clip-rule="evenodd" d="M7.768 10.096c2.449 0 4.434-2.037 4.434-4.548C12.202 3.036 10.217 1 7.768 1S3.334 3.036 3.334 5.548c0 2.511 1.985 4.548 4.434 4.548z" stroke="#D2D2CA"/><path d="M4.765 9.138L1 13" stroke="#D2D2CA" stroke-linecap="round"/></symbol></svg>