<svg width="21" height="20" viewBox="0 0 21 20" fill="none" xmlns="http://www.w3.org/2000/svg">
<g clip-path="url(#clip0)">
<path d="M11.6638 15.0632C15.2075 15.8665 16.4544 12.9798 15.8296 11.9023C15.5794 11.4723 13.3306 10.6465 13.2213 10.6065C12.2553 10.2715 11.8983 10.8965 11.2289 11.719C9.9435 11.1065 9.08163 10.624 8.19613 9.25234C8.246 9.19317 8.3125 9.12317 8.36238 9.06984C8.67213 8.73984 9.25225 8.12484 8.85675 7.37234C8.52425 6.7415 8.35888 6.3015 8.23725 5.979C7.88463 5.04484 7.616 4.7915 6.4015 4.7915C5.13713 4.7915 4.15625 6.374 4.15625 7.7365C4.15625 10.7107 8.3545 14.3107 11.6638 15.0632ZM6.4015 6.0415C6.664 6.0415 6.797 6.04984 6.8635 6.05984C7.00525 6.34567 7.14875 6.94234 7.67725 7.87067C7.595 8.16317 6.42688 8.849 6.9685 9.73567C8.07538 11.5257 9.18313 12.1465 10.7704 12.8982C11.8274 13.3532 12.1651 12.529 12.8354 11.8048C13.146 11.9248 14.1943 12.3665 14.6545 12.5882C14.6134 13.4515 13.7384 14.2482 11.9683 13.8465C8.93025 13.1557 5.46788 9.90067 5.46788 7.73567C5.46875 6.91234 6.07513 6.0415 6.4015 6.0415Z" fill="#A79186"/>
<path d="M0.0726859 19.2377C-0.0419391 19.6327 0.268686 20.0285 0.705311 20.0285C0.862811 20.0285 0.605561 20.0668 5.82231 18.7785C7.94594 19.8085 9.56031 19.776 10.5911 19.8685C19.8267 19.8685 24.3504 9.141 17.9944 2.89933C9.28206 -5.12067 -4.28656 4.846 1.39131 14.6718L0.0726859 19.2377ZM16.9497 3.67767C17.1011 3.941 21.4428 7.67017 19.0252 13.2427C17.5368 16.676 14.1024 18.7918 10.2542 18.5935C7.12344 18.4277 6.31319 17.3627 5.73656 17.5085L1.63894 18.5252L2.72831 14.7552C2.77556 14.5935 2.75194 14.421 2.66444 14.276C-2.57069 5.67267 9.26719 -3.17317 16.9497 3.67767Z" fill="#A79186"/>
</g>
<defs>
<clipPath id="clip0">
<rect width="21" height="20" fill="white"/>
</clipPath>
</defs>
</svg>
