<svg width="12" height="13" viewBox="0 0 12 13" fill="none" xmlns="http://www.w3.org/2000/svg">
<g clip-path="url(#clip0)">
<path d="M6.66246 6.0999L11.8622 0.900115C12.0453 0.717045 12.0453 0.420233 11.8622 0.237186C11.6792 0.05414 11.3823 0.0541165 11.1993 0.237186L5.99951 5.43697L0.799743 0.237186C0.616673 0.0541165 0.319861 0.0541165 0.136814 0.237186C-0.0462323 0.420256 -0.0462558 0.717068 0.136814 0.900115L5.33658 6.09988L0.136814 11.2997C-0.0462558 11.4827 -0.0462558 11.7795 0.136814 11.9626C0.228337 12.0541 0.348314 12.0999 0.46829 12.0999C0.588266 12.0999 0.708219 12.0541 0.799766 11.9626L5.99951 6.76283L11.1993 11.9626C11.2908 12.0541 11.4108 12.0999 11.5307 12.0999C11.6507 12.0999 11.7707 12.0541 11.8622 11.9626C12.0453 11.7795 12.0453 11.4827 11.8622 11.2997L6.66246 6.0999Z" fill="#D2D2CA"/>
</g>
<defs>
<clipPath id="clip0">
<rect width="12" height="12" fill="white" transform="translate(0 0.0991211)"/>
</clipPath>
</defs>
</svg>
