<svg width="24" height="24" viewBox="0 0 24 24" fill="none" xmlns="http://www.w3.org/2000/svg">
<path d="M18.126 14.269C16.4579 14.269 15.1008 15.6261 15.1008 17.2943C15.1008 18.9624 16.4579 20.3195 18.126 20.3195C19.7945 20.3195 21.1513 18.9624 21.1513 17.2943C21.1513 15.6261 19.7942 14.269 18.126 14.269ZM18.126 18.8069C17.2919 18.8069 16.6134 18.1284 16.6134 17.2943C16.6134 16.4601 17.2919 15.7817 18.126 15.7817C18.9602 15.7817 19.6387 16.4601 19.6387 17.2943C19.6387 18.1285 18.9602 18.8069 18.126 18.8069Z" fill="#663D37"/>
<path d="M7.78987 14.269C6.12173 14.269 4.76465 15.6261 4.76465 17.2943C4.76465 18.9624 6.12173 20.3195 7.78987 20.3195C9.45801 20.3195 10.8151 18.9624 10.8151 17.2943C10.8151 15.6261 9.45801 14.269 7.78987 14.269ZM7.78987 18.8069C6.95568 18.8069 6.27726 18.1284 6.27726 17.2943C6.27726 16.4601 6.95568 15.7817 7.78987 15.7817C8.62382 15.7817 9.30248 16.4601 9.30248 17.2943C9.30248 18.1285 8.62405 18.8069 7.78987 18.8069Z" fill="#663D37"/>
<path d="M20.1632 5.60984C20.0347 5.35447 19.7732 5.19336 19.4874 5.19336H15.5042V6.70597H19.0209L21.0804 10.8021L22.4321 10.1224L20.1632 5.60984Z" fill="#663D37"/>
<path d="M15.8572 16.563H10.1345V18.0756H15.8572V16.563Z" fill="#663D37"/>
<path d="M5.52092 16.563H2.8991C2.48135 16.563 2.14282 16.9016 2.14282 17.3193C2.14282 17.737 2.4814 18.0756 2.8991 18.0756H5.52096C5.93871 18.0756 6.27724 17.737 6.27724 17.3193C6.27724 16.9015 5.93867 16.563 5.52092 16.563Z" fill="#663D37"/>
<path d="M23.8411 11.9395L22.3535 10.0235C22.2105 9.83896 21.99 9.73105 21.7562 9.73105H16.2604V4.43695C16.2604 4.0192 15.9219 3.68066 15.5041 3.68066H2.8991C2.48135 3.68066 2.14282 4.01924 2.14282 4.43695C2.14282 4.85465 2.4814 5.19323 2.8991 5.19323H14.7478V10.4873C14.7478 10.9051 15.0864 11.2436 15.5041 11.2436H21.3859L22.4873 12.6624V16.5629H20.3948C19.9771 16.5629 19.6386 16.9015 19.6386 17.3192C19.6386 17.737 19.9771 18.0755 20.3948 18.0755H23.2436C23.6613 18.0755 23.9999 17.7369 23.9999 17.3192V12.4034C23.9999 12.2354 23.9439 12.0721 23.8411 11.9395Z" fill="#663D37"/>
<path d="M5.47065 12.731H1.99163C1.57388 12.731 1.23535 13.0695 1.23535 13.4872C1.23535 13.905 1.57393 14.2435 1.99163 14.2435H5.4706C5.88835 14.2435 6.22688 13.9049 6.22688 13.4872C6.22693 13.0695 5.88835 12.731 5.47065 12.731Z" fill="#663D37"/>
<path d="M7.21008 9.75635H0.756281C0.338578 9.75635 0 10.0949 0 10.5127C0 10.9304 0.338578 11.269 0.756281 11.269H7.21008C7.62783 11.269 7.96636 10.9304 7.96636 10.5127C7.96636 10.095 7.62783 9.75635 7.21008 9.75635Z" fill="#663D37"/>
<path d="M8.44543 6.78174H1.99163C1.57388 6.78174 1.23535 7.12032 1.23535 7.53802C1.23535 7.95577 1.57393 8.2943 1.99163 8.2943H8.44543C8.86318 8.2943 9.20171 7.95572 9.20171 7.53802C9.20176 7.12032 8.86318 6.78174 8.44543 6.78174Z" fill="#663D37"/>
</svg>
