<svg width="24" height="23" viewBox="0 0 24 23" fill="none" xmlns="http://www.w3.org/2000/svg">
<path d="M22.5 5.97056H17.754C18.0945 5.73806 18.387 5.50706 18.591 5.30006C19.8 4.08356 19.8 2.10356 18.591 0.887063C17.4165 -0.294937 15.3675 -0.296437 14.1915 0.887063C13.542 1.53956 11.8155 4.19606 12.054 5.97056H11.946C12.183 4.19606 10.458 1.53956 9.8085 0.887063C8.6325 -0.296437 6.5835 -0.294937 5.409 0.887063C4.2 2.10356 4.2 4.08356 5.4075 5.30006C5.613 5.50706 5.9055 5.73806 6.246 5.97056H1.5C0.6735 5.97056 0 6.64406 0 7.47056V11.2206C0 11.6346 0.336 11.9706 0.75 11.9706H1.5V20.9706C1.5 21.7971 2.1735 22.4706 3 22.4706H21C21.8265 22.4706 22.5 21.7971 22.5 20.9706V11.9706H23.25C23.664 11.9706 24 11.6346 24 11.2206V7.47056C24 6.64406 23.3265 5.97056 22.5 5.97056ZM6.4725 1.94456C6.777 1.63856 7.1805 1.47056 7.6095 1.47056C8.037 1.47056 8.4405 1.63856 8.745 1.94456C9.756 2.96156 10.761 5.55956 10.4115 5.92106C10.4115 5.92106 10.3485 5.97056 10.134 5.97056C9.0975 5.97056 7.119 4.89356 6.4725 4.24256C5.844 3.60956 5.844 2.57756 6.4725 1.94456ZM11.25 20.9706H3V11.9706H11.25V20.9706ZM11.25 10.4706H1.5V7.47056H10.134H11.25V10.4706ZM15.255 1.94456C15.864 1.33406 16.92 1.33556 17.5275 1.94456C18.156 2.57756 18.156 3.60956 17.5275 4.24256C16.881 4.89356 14.9025 5.97056 13.866 5.97056C13.6515 5.97056 13.5885 5.92256 13.587 5.92106C13.239 5.55956 14.244 2.96156 15.255 1.94456ZM21 20.9706H12.75V11.9706H21V20.9706ZM22.5 10.4706H12.75V7.47056H13.866H22.5V10.4706Z" fill="#333333"/>
</svg>
