<svg width="24" height="23" viewBox="0 0 24 23" fill="none" xmlns="http://www.w3.org/2000/svg">
<path d="M9.75059 18.0008C8.51004 18.0008 7.50049 19.0103 7.50049 20.2509C7.50049 21.4915 8.51004 22.501 9.75059 22.501C10.9912 22.501 12.0007 21.4915 12.0007 20.2509C12.0007 19.0103 10.9912 18.0008 9.75059 18.0008ZM9.75059 21.0009C9.33657 21.0009 9.00056 20.6649 9.00056 20.2509C9.00056 19.8369 9.33657 19.5009 9.75059 19.5009C10.1646 19.5009 10.5006 19.8369 10.5006 20.2509C10.5006 20.6649 10.1646 21.0009 9.75059 21.0009Z" fill="black"/>
<path d="M18.7511 18.0008C17.5105 18.0008 16.501 19.0103 16.501 20.2509C16.501 21.4915 17.5105 22.501 18.7511 22.501C19.9916 22.501 21.0012 21.4915 21.0012 20.2509C21.0012 19.0103 19.9916 18.0008 18.7511 18.0008ZM18.7511 21.0009C18.3371 21.0009 18.001 20.6649 18.001 20.2509C18.001 19.8369 18.3371 19.5009 18.7511 19.5009C19.1651 19.5009 19.5011 19.8369 19.5011 20.2509C19.5011 20.6649 19.1651 21.0009 18.7511 21.0009Z" fill="black"/>
<path d="M23.8256 3.27015C23.6846 3.09915 23.4731 3.00014 23.2511 3.00014H5.62226L4.96973 0.556526C4.88273 0.228011 4.58571 0 4.2452 0H0.750035C0.336016 0 0 0.336016 0 0.750035C0 1.16405 0.336016 1.50007 0.750035 1.50007H3.66917L7.52585 15.9442C7.61286 16.2728 7.90987 16.5008 8.25039 16.5008H20.2509C20.665 16.5008 21.001 16.1648 21.001 15.7507C21.001 15.3367 20.665 15.0007 20.2509 15.0007H8.82641L8.38689 13.3536L21.784 12.7506C22.1335 12.7341 22.4261 12.4791 22.4876 12.1356L23.9876 3.88518C24.0281 3.66617 23.9681 3.44116 23.8256 3.27015ZM21.121 11.279L7.98938 11.8701L6.02278 4.50021H22.3525L21.121 11.279Z" fill="black"/>
<path d="M18.751 6.00018C18.337 6.00018 18.001 6.3362 18.001 6.75022V9.75036C18.001 10.1644 18.337 10.5004 18.751 10.5004C19.165 10.5004 19.501 10.1644 19.501 9.75036V6.75022C19.501 6.3362 19.165 6.00018 18.751 6.00018Z" fill="black"/>
<path d="M14.2505 6.00018C13.8365 6.00018 13.5005 6.3362 13.5005 6.75022V9.75036C13.5005 10.1644 13.8365 10.5004 14.2505 10.5004C14.6645 10.5004 15.0006 10.1644 15.0006 9.75036V6.75022C15.0006 6.3362 14.6645 6.00018 14.2505 6.00018Z" fill="black"/>
<path d="M9.75052 6.00018C9.3365 6.00018 9.00049 6.3362 9.00049 6.75022V9.75036C9.00049 10.1644 9.3365 10.5004 9.75052 10.5004C10.1645 10.5004 10.5006 10.1644 10.5006 9.75036V6.75022C10.5006 6.3362 10.1645 6.00018 9.75052 6.00018Z" fill="black"/>
</svg>
