<svg width="24" height="21" viewBox="0 0 24 21" fill="none" xmlns="http://www.w3.org/2000/svg">
<path d="M19.626 14.94C17.9985 14.7915 16.4175 14.3775 14.925 13.71C14.184 13.3815 13.3275 13.68 12.969 14.394L11.487 17.3355C8.166 15.573 5.424 12.831 3.6615 9.51L6.6045 8.028C7.3185 7.671 7.6185 6.8115 7.2885 6.075C6.621 4.578 6.207 2.997 6.06 1.374C5.9895 0.591 5.3505 0 4.575 0H0.75C0.336 0 0 0.336 0 0.75C0 3.8025 0.6645 6.747 1.9785 9.5055C3.972 13.6485 7.3515 17.028 11.4975 19.0215C14.2515 20.334 17.1975 21 20.25 21C20.664 21 21 20.664 21 20.25V16.425C21 15.6495 20.409 15.012 19.626 14.94ZM1.515 1.5015L4.566 1.509C4.728 3.297 5.184 5.04 5.931 6.6915L3.0165 8.1585C2.1075 6.039 1.6035 3.807 1.515 1.5015ZM19.5 19.485C17.1945 19.395 14.961 18.891 12.843 17.985L14.313 15.081C15.957 15.816 17.6985 16.272 19.5 16.425V19.485Z" fill="#333333"/>
<path d="M14.25 6.75C15.4905 6.75 16.5 5.7405 16.5 4.5V3.75C16.5 2.5095 15.4905 1.5 14.25 1.5H11.25C10.836 1.5 10.5 1.836 10.5 2.25C10.5 2.664 10.836 3 11.25 3H14.25C14.6625 3 15 3.336 15 3.75V4.5C15 4.914 14.6625 5.25 14.25 5.25C12.1815 5.25 10.5 6.933 10.5 9V9.75C10.5 10.164 10.836 10.5 11.25 10.5H15.75C16.164 10.5 16.5 10.164 16.5 9.75C16.5 9.336 16.164 9 15.75 9H12C12 7.7595 13.0095 6.75 14.25 6.75Z" fill="#333333"/>
<path d="M23.2498 1.5C22.8358 1.5 22.4998 1.836 22.4998 2.25V6H19.7893L20.9608 2.487C21.0913 2.094 20.8783 1.6695 20.4868 1.539C20.0953 1.41 19.6708 1.62 19.5373 2.013L18.0373 6.513C17.9623 6.741 17.9998 6.993 18.1423 7.188C18.2818 7.3845 18.5083 7.5 18.7498 7.5H22.4998V9.75C22.4998 10.164 22.8358 10.5 23.2498 10.5C23.6638 10.5 23.9998 10.164 23.9998 9.75V2.25C23.9998 1.836 23.6638 1.5 23.2498 1.5Z" fill="#333333"/>
</svg>
